# xmcd CD database file generated by Grip 3.2.0
# 
# Track frame offsets:
#       150
#       17608
#       37961
#       58561
#       80378
#       102036
# 
# Disc length: 1654 seconds
# 
# Revision: 2
# Processed by: cddbd v1.5PL3 Copyright (c) Steve Scherf et al.
# Submitted via: Grip 3.2.0
# 
DISCID=38067406
DTITLE=John Martyn - Collectors Series Vol 1 Another World (Bonus Disc)
DYEAR=1998
DGENRE=Rock
TTITLE0=Dancing (drum machine)
TTITLE1=The Dealer (kit)
TTITLE2=The Dealer (drum machine)
TTITLE3=Certain Surprise
TTITLE4=Smiling Strangers (instrumental)
TTITLE5=Big Muff (drum machine)
EXTD=\n\nYEAR: 1989  ID3G:   0
EXTT0=
EXTT1=
EXTT2=
EXTT3=
EXTT4=
EXTT5=
PLAYORDER=
